# xmcd
#
# Track frame offsets:
#	150
#	55801
#	69517
#	109725
#	131683
#	159530
#	182087
#	214266
#
# Disc length: 3216 seconds
#
# Revision: 0
# Processed by: cddbd v1.5.1PL0 Copyright (c) Steve Scherf et al.
# Submitted via: audiograbber 1.81.02
#
DISCID=720c8e08
DTITLE=B.B.King - Live at Biskuithalle Bonn - 25.03.1994
DYEAR=1994
DGENRE=Blues
TTITLE0=Six Pack and (Introduction) Two I Shoot B.B.'s Blues
TTITLE1=Let The Good Times Roll
TTITLE2=Call It Stormy Monday
TTITLE3=Playing With My Friends
TTITLE4=Darling You Know I Love You
TTITLE5=Ain't Nobody Home
TTITLE6=Nightlife
TTITLE7=We're Gonna Make It
EXTD=
EXTT0=
EXTT1=
EXTT2=
EXTT3=
EXTT4=
EXTT5=
EXTT6=
EXTT7=
PLAYORDER=
